<svg width="50" height="50" viewBox="0 0 50 50" fill="none" xmlns="http://www.w3.org/2000/svg">
<path d="M4.16669 35.4167V24.9479C4.16669 23.8021 4.57502 22.8299 5.39169 22.0313C6.20696 21.2327 7.18752 20.8334 8.33335 20.8334V14.5834C8.33335 13.4375 8.74169 12.457 9.55835 11.6417C10.3736 10.825 11.3542 10.4167 12.5 10.4167H37.5C38.6459 10.4167 39.6271 10.825 40.4438 11.6417C41.2591 12.457 41.6667 13.4375 41.6667 14.5834V20.8334C42.8125 20.8334 43.7938 21.241 44.6104 22.0563C45.4257 22.8729 45.8334 23.8542 45.8334 25V35.4167H43.0209L42.0313 38.5417C41.9271 38.8542 41.7452 39.1063 41.4854 39.2979C41.2243 39.4882 40.9375 39.5834 40.625 39.5834C40.2778 39.5834 39.9827 39.4702 39.7396 39.2438C39.4966 39.0188 39.3229 38.75 39.2188 38.4375L38.2292 35.4167H11.7709L10.7813 38.5417C10.6771 38.8542 10.4952 39.1063 10.2354 39.2979C9.97433 39.4882 9.68752 39.5834 9.37502 39.5834C9.0278 39.5834 8.73266 39.4702 8.4896 39.2438C8.24655 39.0188 8.07294 38.75 7.96877 38.4375L6.97919 35.4167H4.16669ZM27.0834 20.8334H37.5V14.5834H27.0834V20.8334ZM12.5 20.8334H22.9167V14.5834H12.5V20.8334ZM8.33335 31.25H41.6667V25H8.33335V31.25ZM41.6667 31.25H8.33335H41.6667Z" fill="#016956"/>
</svg>
