<svg width="25" height="25" viewBox="0 0 25 25" fill="none" xmlns="http://www.w3.org/2000/svg">
<path d="M13.75 22.4225C16.2716 22.1016 18.5764 20.8327 20.196 18.8735C21.8156 16.9143 22.6284 14.4119 22.4692 11.875C22.31 9.33801 21.1908 6.95686 19.3391 5.21548C17.4873 3.47409 15.0419 2.50315 12.5 2.5C9.95495 2.4981 7.50494 3.46667 5.64917 5.20835C3.79341 6.95002 2.67155 9.33374 2.51218 11.8738C2.35281 14.4139 3.16792 16.9191 4.79143 18.8791C6.41494 20.8391 8.72467 22.1063 11.25 22.4225V15H8.75V12.5H11.25V10.4325C11.25 8.76125 11.425 8.155 11.75 7.54375C12.0701 6.93898 12.565 6.44461 13.17 6.125C13.6475 5.86875 14.2412 5.715 15.2787 5.64875C15.69 5.6225 16.2225 5.655 16.8763 5.74875V8.12375H16.25C15.1038 8.12375 14.63 8.1775 14.3475 8.32875C14.1789 8.41545 14.0417 8.55268 13.955 8.72125C13.805 9.00375 13.75 9.28375 13.75 10.4313V12.5H16.875L16.25 15H13.75V22.4225ZM12.5 25C5.59625 25 0 19.4037 0 12.5C0 5.59625 5.59625 0 12.5 0C19.4037 0 25 5.59625 25 12.5C25 19.4037 19.4037 25 12.5 25Z" fill="#016956"/>
</svg>
