<svg width="50" height="50" viewBox="0 0 50 50" fill="none" xmlns="http://www.w3.org/2000/svg">
<path d="M25.2083 38.6458L25 38.8542L24.7708 38.6458C14.875 29.6667 8.33329 23.7292 8.33329 17.7083C8.33329 13.5417 11.4583 10.4167 15.625 10.4167C18.8333 10.4167 21.9583 12.5 23.0625 15.3333H26.9375C28.0416 12.5 31.1666 10.4167 34.375 10.4167C38.5416 10.4167 41.6666 13.5417 41.6666 17.7083C41.6666 23.7292 35.125 29.6667 25.2083 38.6458ZM34.375 6.25C30.75 6.25 27.2708 7.9375 25 10.5833C22.7291 7.9375 19.25 6.25 15.625 6.25C9.20829 6.25 4.16663 11.2708 4.16663 17.7083C4.16663 25.5625 11.25 32 21.9791 41.7292L25 44.4792L28.0208 41.7292C38.75 32 45.8333 25.5625 45.8333 17.7083C45.8333 11.2708 40.7916 6.25 34.375 6.25Z" fill="#016956"/>
</svg>
