<svg width="50" height="50" viewBox="0 0 50 50" fill="none" xmlns="http://www.w3.org/2000/svg">
<path d="M45.17 30.8887L38.8864 26.7774L41.3057 22.342C41.8893 21.2345 42.195 20.0018 42.1966 18.75V11.7188C42.2014 9.74174 41.6288 7.80631 40.5491 6.15017C39.4693 4.49402 37.9294 3.18924 36.1184 2.39606C34.3075 1.60288 32.3043 1.35582 30.3549 1.68522C28.4055 2.01463 26.5947 2.90615 25.1449 4.25032L27.2687 6.543C28.2733 5.61416 29.5271 4.99864 30.8764 4.77191C32.2256 4.54517 33.6117 4.71708 34.8647 5.26654C36.1177 5.81601 37.1832 6.71916 37.9304 7.86526C38.6777 9.01136 39.0743 10.3506 39.0716 11.7188V18.75C39.0713 19.479 38.8966 20.1972 38.5623 20.8449L34.7619 27.8125L43.459 33.5033C44.0331 33.8791 44.5042 34.3923 44.8295 34.9964C45.1547 35.6005 45.3239 36.2763 45.3216 36.9624V42.1875H38.2903V45.3125H48.4466V36.9623C48.4497 35.7571 48.1516 34.5702 47.5794 33.5095C47.0072 32.4488 46.1789 31.5479 45.17 30.8887Z" fill="#016956"/>
<path d="M31.1075 34.0137L24.824 29.9024L27.2433 25.467C27.8268 24.3595 28.1325 23.1268 28.1341 21.875V14.8438C28.1321 12.1487 27.0611 9.56444 25.1561 7.65799C23.2511 5.75153 20.6677 4.67855 17.9727 4.67444C12.3753 4.67444 7.82158 9.23645 7.82158 14.8438V21.875C7.81562 23.1263 8.11798 24.3597 8.70195 25.4663L11.1344 29.9257L4.8874 34.0137C3.8796 34.6719 3.0521 35.5713 2.48 36.6303C1.9079 37.6893 1.60931 38.8745 1.61133 40.0781L1.5625 48.4375H34.3841V40.0873C34.3872 38.8821 34.0891 37.6952 33.5169 36.6345C32.9447 35.5738 32.1165 34.6729 31.1075 34.0137ZM31.2591 45.3125H4.70566L4.73594 40.0873C4.73358 39.4012 4.90273 38.7254 5.22802 38.1213C5.55331 37.5172 6.02442 37.0039 6.59853 36.6282L15.2589 30.9614L11.4453 23.9699C11.1147 23.3213 10.9437 22.6031 10.9466 21.875V14.8438C10.9466 12.979 11.6874 11.1905 13.006 9.87193C14.3246 8.55331 16.113 7.81252 17.9778 7.81252C19.8426 7.81252 21.6311 8.55331 22.9497 9.87193C24.2683 11.1905 25.0091 12.979 25.0091 14.8438V21.875C25.0088 22.6039 24.8342 23.3222 24.4998 23.9699L20.6994 30.9375L29.3965 36.6283C29.9706 37.0041 30.4417 37.5173 30.767 38.1214C31.0923 38.7255 31.2614 39.4013 31.2591 40.0874V45.3125Z" fill="#016956"/>
</svg>
