<svg width="60" height="48" viewBox="0 0 60 48" fill="none" xmlns="http://www.w3.org/2000/svg">
<path d="M0.000649259 23.61C-0.0804031 12.8844 7.43614 2.72645 17.6253 0.637629C21.6992 -0.197435 25.6644 0.123565 29.5549 1.68437C29.8215 1.79137 30.1884 1.78904 30.455 1.68204C43.1034 -3.43301 57.0956 4.99903 59.4568 19.3626C61.0288 28.9274 58.0917 36.7896 51.0402 42.742C47.8322 45.4519 44.1315 46.8638 40.0789 47.2942C36.8048 47.6408 33.6694 47.1151 30.5809 45.973C30.2183 45.838 29.7341 45.845 29.3715 45.9869C16.723 50.9043 3.24914 42.7397 0.504027 28.432C0.201147 26.8572 0.162754 25.2197 0.000649259 23.61ZM33.5969 43.9027C40.3178 46.0265 49.7305 43.2049 54.5745 34.3867C59.2542 25.8686 57.6673 14.8686 50.797 8.25555C47.3118 4.90134 43.2058 3.19167 38.5709 3.01954C36.8923 2.95673 35.2307 3.17073 33.3857 3.72667C35.6872 5.35725 37.4938 7.17159 39.0935 9.39533C38.3917 9.9815 37.7348 10.5305 37.0544 11.098C36.8176 10.8096 36.6512 10.6235 36.4998 10.4258C34.8702 8.30672 32.9058 6.6459 30.6747 5.34097C30.1969 5.06184 29.8023 5.05021 29.3331 5.31771C27.3089 6.47842 25.5108 7.95548 23.973 9.80239C23.8172 9.98848 23.7597 10.2723 23.6509 10.5258C22.787 9.73493 22.1813 9.179 21.5329 8.58352C22.915 6.62496 24.6598 5.22466 26.4856 3.81273C21.6267 1.95186 12.9306 3.18934 7.28256 10.2978C1.58117 17.4761 1.14391 28.325 6.43791 36.1267C11.766 43.9772 20.6989 45.8148 26.4834 43.8353C26.2339 43.6166 26.0483 43.4352 25.8457 43.277C19.6601 38.4481 16.45 31.9211 16.3946 23.5984C16.386 22.4074 16.386 22.4028 17.4952 22.4028C23.8386 22.4028 30.1841 22.3981 36.5275 22.4028C38.3192 22.4028 38.0057 22.2167 38.0867 24.0566C38.1273 24.9475 37.867 25.1871 37.0586 25.1824C31.5407 25.1452 26.0227 25.1685 20.5048 25.1615C18.7749 25.1592 18.9648 25.215 19.1951 26.7456C20.2552 33.7471 23.6679 38.911 29.4056 42.2373C29.7341 42.428 30.3228 42.4164 30.647 42.2187C31.7369 41.5557 32.8098 40.8393 33.7952 40.0089C34.7785 39.1808 35.6466 38.1922 36.6235 37.2129C37.2463 37.7596 37.8756 38.3108 38.6818 39.0203C36.9328 40.6997 35.2883 42.2791 33.599 43.9004L33.5969 43.9027Z" fill="#016956"/>
</svg>
