<svg width="257" height="54" viewBox="0 0 257 54" fill="none" xmlns="http://www.w3.org/2000/svg">
<path d="M0.000649259 26.61C-0.0804031 15.8844 7.43614 5.72645 17.6253 3.63763C21.6992 2.80257 25.6644 3.12356 29.5549 4.68437C29.8215 4.79137 30.1884 4.78904 30.455 4.68204C43.1034 -0.433014 57.0956 7.99903 59.4568 22.3626C61.0288 31.9274 58.0917 39.7896 51.0402 45.742C47.8322 48.4519 44.1315 49.8638 40.0789 50.2942C36.8048 50.6408 33.6694 50.1151 30.5809 48.973C30.2183 48.838 29.7341 48.845 29.3715 48.9869C16.723 53.9043 3.24914 45.7397 0.504027 31.432C0.201147 29.8572 0.162754 28.2197 0.000649259 26.61ZM33.5969 46.9027C40.3178 49.0265 49.7305 46.2049 54.5745 37.3867C59.2542 28.8686 57.6673 17.8686 50.797 11.2555C47.3118 7.90134 43.2058 6.19167 38.5709 6.01954C36.8923 5.95673 35.2307 6.17073 33.3857 6.72667C35.6872 8.35725 37.4938 10.1716 39.0935 12.3953C38.3917 12.9815 37.7348 13.5305 37.0544 14.098C36.8176 13.8096 36.6512 13.6235 36.4998 13.4258C34.8702 11.3067 32.9058 9.6459 30.6747 8.34097C30.1969 8.06184 29.8023 8.05021 29.3331 8.31771C27.3089 9.47842 25.5108 10.9555 23.973 12.8024C23.8172 12.9885 23.7597 13.2723 23.6509 13.5258C22.787 12.7349 22.1813 12.179 21.5329 11.5835C22.915 9.62496 24.6598 8.22466 26.4856 6.81273C21.6267 4.95186 12.9306 6.18934 7.28256 13.2978C1.58117 20.4761 1.14391 31.325 6.43791 39.1267C11.766 46.9772 20.6989 48.8148 26.4834 46.8353C26.2339 46.6166 26.0483 46.4352 25.8457 46.277C19.6601 41.4481 16.45 34.9211 16.3946 26.5984C16.386 25.4074 16.386 25.4028 17.4952 25.4028C23.8386 25.4028 30.1841 25.3981 36.5275 25.4028C38.3192 25.4028 38.0057 25.2167 38.0867 27.0566C38.1273 27.9475 37.867 28.1871 37.0586 28.1824C31.5407 28.1452 26.0227 28.1685 20.5048 28.1615C18.7749 28.1592 18.9648 28.215 19.1951 29.7456C20.2552 36.7471 23.6679 41.911 29.4056 45.2373C29.7341 45.428 30.3228 45.4164 30.647 45.2187C31.7369 44.5557 32.8098 43.8393 33.7952 43.0089C34.7785 42.1808 35.6466 41.1922 36.6235 40.2129C37.2463 40.7596 37.8756 41.3108 38.6818 42.0203C36.9328 43.6997 35.2883 45.2791 33.599 46.9004L33.5969 46.9027Z" fill="#016956"/>
<path d="M129.015 16.0126C127.016 16.0126 125.015 16.0289 123.017 16.001C122.467 15.994 122.247 16.1871 122.258 16.7919C122.309 19.839 122.3 22.8862 122.394 25.9334C122.452 27.7733 123.478 28.613 125.536 28.6898C125.96 28.7061 126.391 28.606 126.389 29.3574C126.387 29.9831 126.186 30.1459 125.64 30.1389C123.507 30.111 121.374 30.1273 119.242 30.1273C117.563 30.1273 115.882 30.118 114.203 30.1343C113.762 30.1389 113.5 30.0575 113.508 29.4783C113.515 28.9596 113.6 28.7061 114.161 28.6782C116.428 28.5572 117.2 27.6756 117.205 25.203C117.217 18.5527 117.217 11.9025 117.205 5.25218C117.2 2.88423 116.684 2.20734 114.579 1.8026C114.101 1.70956 113.796 1.62815 113.839 0.976845C113.886 0.246456 114.351 0.430216 114.709 0.42789C118.201 0.41626 121.694 0.418586 125.186 0.425564C125.561 0.425564 126.005 0.290651 126.046 1.00011C126.082 1.67932 125.745 1.71421 125.265 1.76771C123.047 2.01893 122.467 2.64232 122.371 5.12657C122.27 7.73411 122.298 10.3486 122.251 12.9608C122.24 13.6005 122.481 13.8308 123.057 13.8308C127.029 13.8168 131.001 13.8215 134.974 13.8238C135.422 13.8238 135.757 13.7308 135.746 13.1097C135.691 10.1812 135.689 7.25029 135.586 4.32175C135.535 2.88656 134.774 2.1143 133.483 1.91193C133.142 1.85843 132.801 1.76306 132.457 1.75841C131.95 1.7491 131.843 1.39321 131.96 1.00941C132.033 0.77215 132.338 0.451151 132.541 0.448825C136.192 0.413933 139.844 0.42789 143.498 0.418586C143.911 0.418586 144.142 0.530238 144.137 1.05361C144.133 1.5165 144.016 1.69328 143.564 1.76306C141.463 2.08871 140.816 2.78654 140.801 5.10331C140.755 11.8699 140.755 18.6365 140.801 25.4007C140.816 27.7245 141.657 28.5688 143.792 28.6758C144.306 28.7014 144.489 28.8642 144.494 29.4341C144.498 30.0552 144.223 30.1366 143.749 30.1343C139.938 30.1203 136.126 30.1203 132.312 30.1343C131.82 30.1343 131.591 30.018 131.591 29.4132C131.591 28.8154 131.813 28.6758 132.31 28.6782C132.758 28.6782 133.21 28.5991 133.652 28.5014C134.87 28.2292 135.537 27.4802 135.593 26.1148C135.691 23.7096 135.704 21.3021 135.746 18.8947C135.759 18.1968 135.723 17.499 135.753 16.8035C135.778 16.2034 135.571 15.9917 135.01 16.001C133.012 16.0289 131.011 16.0126 129.013 16.0126H129.015Z" fill="#016956"/>
<path d="M205.451 30.4809C201.286 30.3111 196.917 28.3828 193.814 23.8051C189.678 17.7014 190.683 9.25541 196.049 4.09384C201.926 -1.55622 211.654 -1.32826 217.294 4.59394C224.526 12.1886 222.24 24.782 212.849 29.0783C210.805 30.0134 208.655 30.4809 205.451 30.4809ZM215.5 15.4242C215.577 12.9539 215.212 10.3905 214.199 7.97374C212.733 4.47764 210.272 2.42836 206.701 2.30508C203.252 2.18878 200.563 3.82634 199.033 7.21079C196.723 12.3212 196.595 17.6177 198.69 22.8374C200.01 26.1265 202.497 27.9455 205.82 28.1432C209.372 28.3549 212.142 26.822 213.915 23.3933C215.163 20.9789 215.557 18.3364 215.5 15.4242Z" fill="#016956"/>
<path d="M244.446 30.1273C240.713 30.1273 236.981 30.1226 233.248 30.1343C232.775 30.1343 232.438 30.1249 232.438 29.4225C232.438 28.7409 232.745 28.7037 233.231 28.6805C235.277 28.5804 236.132 27.6477 236.138 25.4053C236.16 18.6085 236.157 11.814 236.138 5.01722C236.134 2.90514 235.558 2.23058 233.623 1.80723C233.34 1.74443 232.941 1.6444 232.832 1.42343C232.555 0.865167 232.858 0.430189 233.468 0.427863C235.36 0.416233 237.254 0.423211 239.146 0.423211C244.184 0.423211 249.224 0.44182 254.262 0.404603C255.043 0.39995 255.247 0.658146 255.245 1.48623C255.237 3.34244 255.337 5.19866 255.388 7.05487C255.399 7.43402 255.452 7.84109 254.902 7.82713C254.469 7.81782 254.034 7.89691 253.972 7.20839C253.942 6.86646 253.831 6.5315 253.748 6.19655C253.191 3.93559 251.777 2.64695 249.706 2.47482C247.215 2.26779 244.704 2.31199 242.202 2.26314C241.635 2.25151 241.306 2.58414 241.277 3.21916C241.247 3.88442 241.202 4.54968 241.2 5.21727C241.191 7.74339 241.215 10.2718 241.185 12.798C241.176 13.5237 241.402 13.7819 242.064 13.7237C243.177 13.6284 244.299 13.6377 245.408 13.5237C247.347 13.3237 248.207 12.3886 248.648 10.3044C248.746 9.83919 248.439 8.89945 249.405 9.02739C249.604 9.05297 249.926 9.36002 249.926 9.54145C249.958 12.9096 249.956 16.2801 249.93 19.6483C249.93 19.832 249.642 20.1716 249.503 20.1623C249.254 20.1461 248.959 19.9716 248.791 19.7623C248.652 19.5901 248.669 19.2715 248.616 19.0156C248.14 16.7616 247.057 15.7823 244.926 15.6707C243.915 15.6172 242.906 15.5707 241.895 15.5032C241.43 15.473 241.193 15.666 241.198 16.1917C241.225 18.89 241.151 21.5952 241.3 24.2865C241.426 26.5777 242.366 27.5709 244.476 27.9384C246.564 28.3036 248.661 28.2618 250.755 27.864C252.937 27.45 254.341 26.0822 255.081 23.8538C255.288 23.2281 255.514 22.5954 255.616 21.9441C255.729 21.2207 256.182 21.3696 256.583 21.3835C257.159 21.4045 256.975 21.8953 256.956 22.2302C256.815 24.5144 256.615 26.7963 256.527 29.0829C256.495 29.9412 256.226 30.1459 255.482 30.1389C251.803 30.1017 248.123 30.1226 244.444 30.1226L244.446 30.1273Z" fill="#016956"/>
<path d="M99.6076 2.75396C99.7911 2.16779 100.009 1.63977 100.113 1.08849C100.277 0.220859 100.866 0.425554 101.369 0.434858C101.986 0.444163 101.822 0.976836 101.798 1.33738C101.64 3.85187 101.478 6.36869 101.269 8.87854C101.235 9.28327 101.393 9.90666 100.657 9.97877C99.9596 10.0462 99.8316 9.60195 99.6695 9.04136C98.876 6.27798 97.4128 4.0775 94.8874 2.98424C90.8561 1.23968 86.1508 2.71907 84.1288 7.78528C82.9258 10.7999 82.6506 13.982 82.8703 17.2385C83.0026 19.1877 83.3118 21.0835 84.0435 22.8839C85.7797 27.1476 89.2393 28.4339 92.8547 28.0873C97.1931 27.6733 99.725 24.8936 100.943 20.5206C101.165 19.7227 101.615 19.7646 102.152 19.8018C102.828 19.8507 102.583 20.4275 102.585 20.7951C102.604 23.6119 102.598 26.4288 102.594 29.2457C102.594 29.6644 102.707 30.1529 102.048 30.1366C101.493 30.1226 100.99 30.1901 100.934 29.3178C100.89 28.606 100.704 27.9036 100.555 27.0545C100.235 27.2732 99.9937 27.4221 99.7676 27.5942C96.5596 30.0389 92.9805 30.767 89.1412 30.3762C86.8526 30.1436 84.6919 29.5039 82.7274 28.192C79.2614 25.8729 77.4548 22.4094 76.9471 18.0782C76.4885 14.1587 77.0154 10.4324 78.9265 7.03395C81.0914 3.18429 84.3335 1.0536 88.3691 0.281337C92.1359 -0.439748 95.6745 0.213881 98.9486 2.41668C99.1256 2.53531 99.324 2.6144 99.6012 2.75861L99.6076 2.75396Z" fill="#016956"/>
<path d="M167.576 30.1272C163.793 30.1272 160.009 30.1272 156.225 30.1272C155.794 30.1272 155.382 30.2133 155.37 29.4643C155.357 28.7339 155.694 28.699 156.21 28.6781C158.145 28.5943 158.848 27.8895 159.07 25.8472C159.141 25.1866 159.194 24.519 159.194 23.8561C159.205 18.3409 159.207 12.8258 159.194 7.31067C159.192 6.29882 159.132 5.28465 159.053 4.27513C158.938 2.78876 158.345 2.13979 156.963 1.89322C156.779 1.86066 156.598 1.77459 156.417 1.77459C155.89 1.77692 155.835 1.43964 155.841 0.974421C155.847 0.395227 156.197 0.420814 156.551 0.420814C160.094 0.420814 163.639 0.420814 167.182 0.420814C167.207 0.420814 167.235 0.42314 167.261 0.420814C167.66 0.395227 167.913 0.497575 167.92 1.03257C167.928 1.56059 167.756 1.75598 167.276 1.75831C166.907 1.75831 166.536 1.8467 166.173 1.93277C165.19 2.1677 164.565 2.82133 164.398 3.90994C164.298 4.56357 164.23 5.23348 164.23 5.89641C164.217 11.6139 164.221 17.3338 164.223 23.0513C164.223 23.4281 164.221 23.8096 164.273 24.1794C164.627 26.7265 165.665 27.836 168.08 27.9756C169.959 28.0849 171.855 28.1035 173.73 27.957C175.987 27.7802 177.618 26.4962 178.418 24.1189C178.627 23.4955 178.862 22.8652 178.96 22.2162C179.073 21.4556 179.515 21.4532 180.005 21.5393C180.615 21.6463 180.319 22.1441 180.297 22.5046C180.167 24.6725 179.997 26.8405 179.916 29.0107C179.884 29.8551 179.67 30.1598 178.849 30.1505C175.093 30.1039 171.335 30.1295 167.579 30.1295L167.576 30.1272Z" fill="#016956"/>
<path d="M173.508 47.9078C172.231 47.9078 171.062 47.8868 169.895 47.931C169.729 47.938 169.439 48.259 169.434 48.4428C169.404 49.5709 169.426 50.7037 169.46 51.8342C169.477 52.3948 169.709 52.7507 170.298 52.767C170.46 52.7716 170.616 53.0182 170.774 53.1554C170.616 53.2624 170.458 53.4601 170.3 53.4648C168.995 53.4904 167.69 53.4904 166.384 53.4648C166.231 53.4625 166.081 53.2484 165.93 53.1321C166.071 53.0042 166.211 52.7693 166.352 52.767C167.092 52.7623 167.229 52.2738 167.227 51.6155C167.222 49.0615 167.218 46.5075 167.233 43.9534C167.237 43.223 167.094 42.6857 166.29 42.6671C166.175 42.6648 166.064 42.495 165.951 42.4019C166.081 42.2949 166.211 42.0949 166.344 42.0926C167.675 42.0693 169.008 42.067 170.341 42.0879C170.482 42.0879 170.622 42.2693 170.761 42.367C170.633 42.4717 170.505 42.6648 170.375 42.6671C169.66 42.6741 169.46 43.1742 169.436 43.8092C169.404 44.6792 169.419 45.5491 169.409 46.4191C169.402 46.9355 169.637 47.1402 170.102 47.1309C171.034 47.1146 171.966 47.1169 172.9 47.1285C173.331 47.1332 173.549 46.9285 173.544 46.4586C173.538 45.5584 173.544 44.6606 173.515 43.7604C173.493 43.1533 173.286 42.6927 172.619 42.6694C172.474 42.6648 172.335 42.4973 172.194 42.4066C172.35 42.2949 172.504 42.0902 172.659 42.0879C173.965 42.0623 175.27 42.0646 176.575 42.0879C176.718 42.0902 176.861 42.2647 177.002 42.3601C176.876 42.4671 176.752 42.6601 176.622 42.6671C175.863 42.7113 175.726 43.223 175.731 43.9162C175.741 46.4702 175.744 49.0243 175.731 51.5783C175.726 52.2855 175.869 52.7809 176.648 52.7646C176.772 52.7623 176.897 52.9763 177.023 53.0903C176.885 53.2182 176.746 53.4555 176.605 53.4578C175.274 53.4857 173.941 53.4857 172.608 53.4578C172.461 53.4555 172.32 53.2275 172.175 53.1042C172.322 52.9856 172.472 52.76 172.617 52.7623C173.248 52.7716 173.493 52.3785 173.506 51.79C173.532 50.5246 173.515 49.2569 173.515 47.9054L173.508 47.9078Z" fill="#016956"/>
<path d="M110.863 48.0542C111.659 49.4662 112.401 50.8316 113.195 52.1621C113.352 52.4273 113.721 52.5319 113.958 52.7529C114.073 52.8599 114.163 53.0693 114.159 53.2298C114.159 53.3135 113.93 53.4693 113.811 53.4647C112.292 53.3972 111.296 53.3368 110.584 51.776C110.194 50.92 109.722 50.1058 109.349 49.2405C109.037 48.5194 108.609 48.2287 107.811 48.5497C107.811 49.6895 107.762 50.8758 107.849 52.0481C107.869 52.304 108.383 52.5157 108.666 52.7506C108.813 52.8715 108.961 52.9948 109.108 53.1181C108.959 53.2391 108.811 53.46 108.66 53.4624C107.327 53.4903 105.996 53.4903 104.663 53.4624C104.52 53.46 104.383 53.2251 104.243 53.0972C104.394 52.9809 104.548 52.7622 104.695 52.7669C105.386 52.7901 105.606 52.3133 105.61 51.7178C105.633 49.0754 105.633 46.4353 105.612 43.7928C105.608 43.1602 105.36 42.6694 104.652 42.667C104.52 42.667 104.39 42.4763 104.257 42.3763C104.368 42.2786 104.481 42.0971 104.592 42.0971C106.589 42.1157 108.594 42.0367 110.575 42.2367C112.017 42.3809 112.762 43.2648 112.896 44.4721C113.052 45.8817 112.555 46.961 111.409 47.6704C111.273 47.7542 111.143 47.8565 110.861 48.0566L110.863 48.0542ZM107.8 42.8275C107.8 44.3581 107.792 45.7747 107.813 47.1913C107.815 47.3448 107.956 47.5727 108.084 47.6332C108.647 47.9007 109.741 47.5704 110.149 47.0517C110.718 46.3259 110.818 44.4465 110.285 43.5788C109.694 42.6159 108.79 42.795 107.8 42.8298V42.8275Z" fill="#016956"/>
<path d="M186.57 47.6262C186.769 46.6749 186.867 45.6816 187.187 44.7814C187.822 42.9834 189.139 42.0762 190.877 41.9367C191.562 41.8808 192.278 41.8622 192.944 42.0157C195.017 42.4903 196.126 44.0348 196.463 46.2259C196.679 47.6309 196.649 49.0591 196.164 50.4292C195.409 52.5668 193.513 53.802 191.321 53.581C188.166 53.2623 186.703 51.3829 186.57 47.6286V47.6262ZM194.381 47.7193C194.213 46.6377 194.125 45.5351 193.852 44.4884C193.543 43.3021 192.69 42.6926 191.658 42.6903C190.619 42.688 189.783 43.2835 189.431 44.4581C188.787 46.6121 188.797 48.8032 189.414 50.9595C189.766 52.1854 190.6 52.7599 191.7 52.7413C192.743 52.725 193.558 52.1202 193.867 50.913C194.127 49.8918 194.211 48.8172 194.381 47.7216V47.7193Z" fill="#016956"/>
<path d="M144.76 44.77C144.76 47.1729 144.735 49.5757 144.796 51.9762C144.803 52.2414 145.293 52.495 145.566 52.7462C145.72 52.8881 145.886 53.016 146.046 53.1509C145.889 53.2602 145.735 53.458 145.575 53.4649C144.696 53.4952 143.817 53.4952 142.939 53.4649C142.779 53.4603 142.625 53.2626 142.467 53.1532C142.627 53.0183 142.781 52.7764 142.947 52.7671C143.587 52.7299 143.758 52.3252 143.756 51.725C143.756 49.057 143.753 46.3867 143.756 43.7187C143.756 43.0999 143.532 42.7394 142.93 42.6719C142.772 42.6533 142.634 42.4602 142.484 42.3463C142.657 42.2555 142.83 42.095 143.005 42.0857C143.724 42.0555 144.449 42.0113 145.159 42.1044C145.466 42.1439 145.82 42.4416 146.014 42.7324C147.452 44.891 148.855 47.0798 150.27 49.2571C150.421 49.4897 150.587 49.7083 150.871 50.1084C150.916 49.692 150.961 49.4594 150.961 49.2291C150.967 47.4892 150.952 45.747 150.967 44.0071C150.974 43.2558 150.854 42.6673 149.994 42.6649C149.89 42.6649 149.785 42.4765 149.683 42.3765C149.796 42.2788 149.905 42.102 150.02 42.0997C150.978 42.0788 151.938 42.0788 152.895 42.0997C153.006 42.102 153.113 42.2858 153.222 42.3858C153.113 42.4835 153.006 42.6626 152.897 42.6649C152.034 42.6812 151.938 43.2883 151.942 44.0303C151.953 46.8728 151.955 49.7176 151.933 52.5601C151.933 52.8625 151.741 53.43 151.68 53.4231C151.266 53.3765 150.722 53.3463 150.487 53.0555C149.824 52.2321 149.288 51.2854 148.704 50.3852C147.642 48.7523 146.584 47.1171 145.52 45.4865C145.34 45.2143 145.146 44.9538 144.959 44.6863C144.89 44.7142 144.824 44.7421 144.756 44.77H144.76Z" fill="#016956"/>
<path d="M92.4878 44.898C92.4409 44.784 92.3684 44.6631 92.3449 44.5305C92.1636 43.5117 91.6517 42.8208 90.6748 42.7138C89.5635 42.5905 88.5226 42.9348 88.0193 44.0606C86.9635 46.4262 86.9677 48.8849 87.9979 51.2599C88.5056 52.4322 90.2247 53.0672 91.3339 52.6369C91.5173 52.5648 91.7199 52.2577 91.7413 52.0391C91.7989 51.4669 91.737 50.8807 91.769 50.3015C91.8053 49.5851 91.641 49.0524 90.9393 48.8314C90.8113 48.7919 90.7345 48.5639 90.6343 48.422C90.7665 48.3499 90.8966 48.2173 91.0289 48.215C92.2276 48.1987 93.4242 48.1987 94.6229 48.2173C94.7423 48.2173 94.8618 48.3802 94.9812 48.4662C94.8917 48.5895 94.8255 48.7826 94.7125 48.8221C94.0683 49.0361 93.9809 49.606 93.9468 50.1968C93.919 50.6597 93.8806 51.1342 93.9425 51.5878C94.0833 52.6136 93.6247 53.0393 92.7736 53.2556C91.3531 53.6162 89.9368 53.7371 88.5162 53.3347C86.4985 52.7625 85.176 51.0575 85.0566 48.7802C85.0075 47.8359 85.031 46.8566 85.208 45.9354C85.641 43.6768 87.2983 42.0788 89.4142 41.9718C90.5895 41.9113 91.7882 42.1021 92.9549 42.3161C93.518 42.4207 94.0385 42.8418 94.0491 43.6233C94.0598 44.356 93.6332 44.7096 92.4857 44.9003L92.4878 44.898Z" fill="#016956"/>
<path d="M131.175 53.4767C130.563 53.4767 129.947 53.4999 129.337 53.4627C129.179 53.4534 129.034 53.2464 128.882 53.1301C129.023 53.0022 129.153 52.7812 129.305 52.7626C130.103 52.6672 130.175 52.1764 129.996 51.4669C129.539 49.6503 129.548 49.6479 127.825 49.6479C127.532 49.6479 127.236 49.6293 126.946 49.6526C126.506 49.6875 125.809 49.5898 125.679 49.8364C125.333 50.49 125.171 51.2878 125.073 52.0508C125.047 52.2415 125.527 52.523 125.79 52.744C125.954 52.8835 126.142 52.9882 126.319 53.1068C126.146 53.2324 125.977 53.4557 125.802 53.4627C124.898 53.4999 123.989 53.4906 123.085 53.4674C122.938 53.4627 122.795 53.2976 122.65 53.2068C122.733 53.0557 122.795 52.7951 122.904 52.7695C123.667 52.5904 123.853 51.9019 124.075 51.2529C125.022 48.4826 126.003 45.7262 126.875 42.9279C127.148 42.051 127.637 42.0835 128.268 42.051C128.904 42.0207 129.209 42.2487 129.42 42.9232C130.29 45.7215 131.216 48.5012 132.131 51.2832C132.344 51.9345 132.523 52.6323 133.313 52.7695C133.411 52.7858 133.571 53.058 133.539 53.1301C133.477 53.2743 133.308 53.4557 133.176 53.4627C132.511 53.4953 131.843 53.479 131.178 53.479L131.175 53.4767ZM129.134 48.8059C128.639 47.0427 128.174 45.3866 127.707 43.7304C127.643 43.7257 127.579 43.7211 127.513 43.7188C126.993 45.3773 126.472 47.0381 125.918 48.8059H129.132H129.134Z" fill="#016956"/>
<path d="M227.726 42.8484C227.726 44.1696 227.698 45.3815 227.756 46.5888C227.764 46.7795 228.152 47.0842 228.381 47.1028C229.148 47.1703 229.925 47.1098 230.695 47.1494C230.878 47.1587 231.053 47.3727 231.23 47.4913C231.045 47.6285 230.861 47.8751 230.671 47.8821C229.722 47.9216 228.771 47.9007 227.726 47.9007C227.726 49.3964 227.704 50.7804 227.751 52.1644C227.758 52.3458 228.105 52.6482 228.31 52.6645C229.078 52.7227 229.854 52.704 230.624 52.6808C231.407 52.6575 231.753 52.1179 231.832 51.3386C231.9 50.6594 232.218 50.5245 232.794 50.7594C232.76 51.5154 232.755 52.2667 232.666 53.0041C232.644 53.1832 232.337 53.4554 232.16 53.4577C229.656 53.4879 227.154 53.4833 224.65 53.4647C224.49 53.4647 224.33 53.267 224.17 53.1623C224.326 53.025 224.484 52.7645 224.637 52.7692C225.335 52.7808 225.533 52.2923 225.537 51.7038C225.559 49.0637 225.559 46.4236 225.533 43.7835C225.527 43.1601 225.292 42.6507 224.573 42.6647C224.445 42.667 224.315 42.4716 224.185 42.3669C224.326 42.2692 224.465 42.0878 224.605 42.0878C226.975 42.0715 229.347 42.0762 231.717 42.0762C231.77 42.0762 231.853 42.0645 231.87 42.0948C231.994 42.3134 232.207 42.5414 232.203 42.7624C232.188 43.4253 232.083 44.0859 232.015 44.7465C231.798 44.579 231.435 44.4534 231.388 44.2394C231.094 42.9298 231.032 42.8461 229.793 42.8461C229.136 42.8461 228.477 42.8461 227.726 42.8461V42.8484Z" fill="#016956"/>
<path d="M209.444 42.8485C208.977 42.8485 208.636 42.8462 208.295 42.8485C207.243 42.8578 206.968 43.1439 206.767 44.293C206.725 44.5302 206.49 44.7303 206.345 44.9466C206.204 44.6977 205.944 44.4488 205.944 44.2023C205.95 41.6599 205.667 42.1018 207.866 42.0739C209.811 42.0506 211.756 42.0646 213.704 42.0692C215.346 42.0739 215.058 41.9367 215.114 43.6184C215.122 43.8789 215.171 44.1557 215.112 44.3977C215.06 44.6 214.877 44.7605 214.753 44.942C214.61 44.8047 214.435 44.6907 214.335 44.5233C214.256 44.3883 214.263 44.1906 214.243 44.0185C214.16 43.216 213.742 42.8671 213.013 42.8438C211.601 42.802 211.601 42.788 211.599 44.3C211.599 46.5935 211.59 48.887 211.605 51.1805C211.609 51.9784 211.599 52.8274 212.699 52.7692C212.793 52.7646 212.996 53.0135 212.976 53.0809C212.93 53.2321 212.776 53.4531 212.663 53.4554C211.276 53.481 209.892 53.481 208.506 53.4554C208.378 53.4554 208.254 53.2391 208.128 53.1228C208.246 52.9995 208.367 52.7646 208.482 52.7669C209.37 52.7855 209.451 52.1644 209.451 51.4294C209.444 48.6172 209.449 45.8073 209.449 42.8462L209.444 42.8485Z" fill="#016956"/>
<path d="M246.317 53.4786C245.118 53.4786 243.919 53.4949 242.721 53.4646C242.507 53.46 242.298 53.2623 242.089 53.153C242.275 53.0157 242.475 52.8971 242.642 52.7389C242.912 52.4854 243.324 52.2435 243.386 51.9271C243.516 51.2572 243.476 50.5454 243.478 49.8499C243.486 47.9635 243.491 46.077 243.473 44.1929C243.467 43.4113 243.416 42.6274 242.392 42.6553C242.298 42.6577 242.2 42.453 242.104 42.3436C242.198 42.2576 242.29 42.0994 242.386 42.0971C243.798 42.0808 245.208 42.0785 246.62 42.0971C246.722 42.0971 246.822 42.2995 246.925 42.4065C246.807 42.4948 246.692 42.6577 246.575 42.66C245.769 42.6833 245.634 43.2345 245.638 43.9556C245.649 46.5678 245.662 49.1777 245.628 51.7899C245.619 52.483 245.835 52.7319 246.449 52.697C247.006 52.6645 247.567 52.7017 248.125 52.6877C249.183 52.6598 249.525 52.3598 249.813 51.2339C249.892 50.9292 249.928 50.6012 250.056 50.3244C250.115 50.1965 250.352 50.1104 250.508 50.1151C250.587 50.1151 250.728 50.3616 250.726 50.4942C250.704 51.334 250.683 52.1783 250.58 53.0087C250.557 53.1902 250.201 53.4484 249.992 53.4553C248.767 53.4972 247.543 53.4763 246.317 53.4763V53.4786Z" fill="#016956"/>
</svg>
