<svg width="204" height="43" viewBox="0 0 204 43" fill="none" xmlns="http://www.w3.org/2000/svg">
<path d="M0.000515368 20.9243C-0.0638223 12.4905 5.90265 4.50303 13.9906 2.86053C17.2244 2.2039 20.3718 2.45631 23.46 3.68361C23.6717 3.76774 23.9629 3.76591 24.1745 3.68178C34.2146 -0.340328 45.3213 6.29002 47.1956 17.5845C48.4434 25.1056 46.112 31.2878 40.5146 35.9684C37.9682 38.0992 35.0307 39.2095 31.8138 39.5478C29.2149 39.8204 26.726 39.407 24.2744 38.5089C23.9866 38.4028 23.6023 38.4083 23.3144 38.5199C13.2744 42.3865 2.5791 35.9665 0.400086 24.716C0.159666 23.4777 0.129191 22.19 0.000515368 20.9243ZM26.6685 36.8811C32.0034 38.551 39.475 36.3323 43.3201 29.3984C47.0347 22.7004 45.775 14.0507 40.3216 8.8507C37.5551 6.2132 34.2959 4.86884 30.6168 4.73349C29.2843 4.6841 27.9654 4.85238 26.5008 5.28952C28.3277 6.57169 29.7617 7.99836 31.0316 9.74694C30.4745 10.2079 29.9531 10.6395 29.413 11.0858C29.225 10.859 29.093 10.7127 28.9728 10.5572C27.6792 8.89094 26.1199 7.58499 24.3489 6.55889C23.9697 6.3394 23.6564 6.33026 23.284 6.5406C21.6772 7.4533 20.2499 8.61476 19.0292 10.067C18.9056 10.2134 18.8599 10.4365 18.7736 10.6359C18.0879 10.014 17.607 9.57684 17.0923 9.1086C18.1894 7.56853 19.5744 6.46744 21.0237 5.3572C17.1668 3.89395 10.2641 4.86701 5.78074 10.4566C1.2551 16.1011 0.908015 24.6318 5.11028 30.7665C9.33963 36.9396 16.4303 38.3846 21.022 36.828C20.8239 36.6561 20.6766 36.5134 20.5158 36.3891C15.6058 32.5919 13.0577 27.4596 13.0136 20.9152C13.0069 19.9787 13.0069 19.9751 13.8873 19.9751C18.9226 19.9751 23.9595 19.9714 28.9948 19.9751C30.417 19.9751 30.1681 19.8287 30.2324 21.2755C30.2646 21.976 30.058 22.1644 29.4164 22.1608C25.0363 22.1315 20.6563 22.1498 16.2762 22.1443C14.9031 22.1425 15.0538 22.1864 15.2367 23.3899C16.0782 28.8954 18.7871 32.9559 23.3415 35.5715C23.6023 35.7214 24.0696 35.7123 24.3269 35.5568C25.1921 35.0355 26.0437 34.4722 26.8259 33.8192C27.6064 33.1681 28.2955 32.3907 29.071 31.6207C29.5653 32.0505 30.0648 32.484 30.7048 33.0419C29.3165 34.3625 28.0111 35.6044 26.6702 36.8792L26.6685 36.8811Z" fill="white"/>
<path d="M102.409 12.5911C100.823 12.5911 99.2346 12.604 97.6482 12.582C97.2114 12.5765 97.037 12.7283 97.0455 13.2039C97.0861 15.6 97.0793 17.996 97.1538 20.3921C97.1995 21.8389 98.0139 22.4992 99.6477 22.5595C99.9847 22.5723 100.327 22.4937 100.325 23.0845C100.323 23.5765 100.164 23.7045 99.7307 23.699C98.0376 23.6771 96.3445 23.6899 94.6514 23.6899C93.319 23.6899 91.9848 23.6826 90.6523 23.6954C90.3019 23.699 90.0936 23.635 90.1004 23.1796C90.1055 22.7717 90.1732 22.5723 90.6185 22.5504C92.4182 22.4553 93.0311 21.7621 93.0345 19.8178C93.0447 14.5885 93.0447 9.3592 93.0345 4.12991C93.0311 2.26793 92.6214 1.73567 90.9503 1.41741C90.5711 1.34425 90.329 1.28023 90.3628 0.768096C90.4001 0.193771 90.7692 0.338267 91.0536 0.336438C93.8252 0.327292 96.5985 0.329121 99.3701 0.334608C99.6681 0.334608 100.02 0.228523 100.052 0.786387C100.081 1.32047 99.8137 1.34791 99.4327 1.38998C97.6719 1.58752 97.2114 2.0777 97.1352 4.03114C97.0556 6.08152 97.0776 8.13738 97.0404 10.1914C97.0319 10.6944 97.2232 10.8755 97.6804 10.8755C100.833 10.8645 103.985 10.8682 107.14 10.87C107.495 10.87 107.761 10.7968 107.753 10.3085C107.709 8.00569 107.707 5.70107 107.626 3.39829C107.585 2.26976 106.981 1.66251 105.956 1.50338C105.685 1.46131 105.414 1.38632 105.142 1.38266C104.739 1.37534 104.654 1.0955 104.747 0.793703C104.805 0.607139 105.047 0.354728 105.208 0.352899C108.106 0.325463 111.005 0.336438 113.905 0.329121C114.234 0.329121 114.417 0.416916 114.413 0.828455C114.41 1.19244 114.317 1.33145 113.958 1.38632C112.29 1.64239 111.777 2.19111 111.765 4.01285C111.728 9.33359 111.728 14.6543 111.765 19.9732C111.777 21.8005 112.444 22.4644 114.139 22.5486C114.547 22.5687 114.693 22.6967 114.696 23.1448C114.699 23.6332 114.481 23.6972 114.105 23.6954C111.08 23.6844 108.054 23.6844 105.027 23.6954C104.636 23.6954 104.454 23.6039 104.454 23.1284C104.454 22.6583 104.631 22.5486 105.025 22.5504C105.381 22.5504 105.74 22.4882 106.09 22.4114C107.057 22.1974 107.587 21.6084 107.631 20.5348C107.709 18.6435 107.719 16.7504 107.753 14.8574C107.763 14.3086 107.734 13.7599 107.758 13.213C107.778 12.7411 107.614 12.5747 107.168 12.582C105.582 12.604 103.994 12.5911 102.407 12.5911H102.409Z" fill="white"/>
<path d="M163.083 23.968C159.776 23.8344 156.309 22.3181 153.845 18.7186C150.562 13.9191 151.36 7.27778 155.62 3.21909C160.284 -1.2237 168.006 -1.04445 172.483 3.61234C178.224 9.58423 176.409 19.4868 168.955 22.865C167.333 23.6003 165.626 23.968 163.083 23.968V23.968ZM171.059 12.1285C171.12 10.186 170.831 8.17036 170.026 6.26997C168.863 3.52089 166.909 1.90949 164.075 1.81255C161.337 1.72109 159.202 3.00875 157.988 5.67004C156.155 9.68848 156.053 13.8533 157.716 17.9577C158.764 20.544 160.738 21.9743 163.376 22.1298C166.195 22.2962 168.394 21.0908 169.801 18.3948C170.792 16.4962 171.105 14.4184 171.059 12.1285V12.1285Z" fill="white"/>
<path d="M194.036 23.6899C191.073 23.6899 188.11 23.6862 185.147 23.6954C184.771 23.6954 184.504 23.6881 184.504 23.1357C184.504 22.5998 184.748 22.5705 185.134 22.5522C186.757 22.4736 187.436 21.7401 187.441 19.9769C187.458 14.6324 187.457 9.28971 187.441 3.94519C187.438 2.2844 186.981 1.75398 185.445 1.42109C185.22 1.3717 184.904 1.29305 184.817 1.11929C184.597 0.680318 184.837 0.338283 185.322 0.336454C186.824 0.327309 188.327 0.332796 189.829 0.332796C193.828 0.332796 197.829 0.347429 201.828 0.318164C202.447 0.314506 202.61 0.517531 202.608 1.16868C202.601 2.62827 202.681 4.08786 202.722 5.54745C202.73 5.84559 202.772 6.16567 202.336 6.1547C201.992 6.14738 201.647 6.20957 201.597 5.66817C201.574 5.39929 201.486 5.13591 201.42 4.87253C200.978 3.09468 199.855 2.08138 198.211 1.94603C196.234 1.78324 194.241 1.81799 192.255 1.77958C191.805 1.77044 191.544 2.03199 191.52 2.53133C191.496 3.05444 191.461 3.57755 191.459 4.10249C191.452 6.08885 191.471 8.07704 191.447 10.0634C191.441 10.6341 191.62 10.8371 192.145 10.7914C193.029 10.7164 193.919 10.7237 194.8 10.6341C196.339 10.4768 197.021 9.74149 197.371 8.10265C197.449 7.73683 197.206 6.99789 197.973 7.09849C198.13 7.11861 198.386 7.36005 198.386 7.50271C198.411 10.1512 198.409 12.8015 198.389 15.45C198.389 15.5945 198.16 15.8615 198.05 15.8542C197.852 15.8414 197.619 15.7042 197.485 15.5396C197.375 15.4043 197.388 15.1537 197.346 14.9525C196.969 13.1801 196.108 12.4101 194.417 12.3223C193.615 12.2802 192.814 12.2436 192.011 12.1906C191.642 12.1668 191.454 12.3186 191.458 12.732C191.48 14.8537 191.42 16.9809 191.539 19.0971C191.639 20.8988 192.385 21.6798 194.06 21.9688C195.717 22.2559 197.382 22.223 199.044 21.9102C200.776 21.5847 201.89 20.5092 202.478 18.7569C202.642 18.2649 202.822 17.7674 202.903 17.2553C202.993 16.6864 203.351 16.8035 203.67 16.8145C204.127 16.8309 203.981 17.2169 203.966 17.4802C203.854 19.2764 203.695 21.0707 203.626 22.8687C203.6 23.5436 203.387 23.7045 202.796 23.6991C199.876 23.6698 196.955 23.6862 194.034 23.6862L194.036 23.6899Z" fill="white"/>
<path d="M79.0665 2.16555C79.2121 1.70463 79.3848 1.28943 79.4677 0.855942C79.5981 0.173702 80.0654 0.334659 80.465 0.341975C80.9543 0.349292 80.8239 0.768147 80.8053 1.05165C80.68 3.02887 80.5513 5.00791 80.3854 6.98147C80.3583 7.29972 80.4836 7.78991 79.8995 7.84661C79.3458 7.89966 79.2442 7.55031 79.1156 7.1095C78.4857 4.93658 77.3243 3.20629 75.3196 2.34663C72.1197 0.974831 68.3847 2.13811 66.7797 6.12181C65.8248 8.49227 65.6063 10.9944 65.7807 13.5551C65.8857 15.0879 66.1312 16.5786 66.7119 17.9942C68.0901 21.3469 70.8363 22.3584 73.7061 22.0859C77.1499 21.7603 79.1596 19.5746 80.1263 16.1359C80.3024 15.5086 80.6597 15.5415 81.0863 15.5707C81.623 15.6091 81.4283 16.0628 81.43 16.3517C81.4453 18.5667 81.4402 20.7817 81.4368 22.9967C81.4368 23.326 81.5265 23.7101 81.0034 23.6973C80.5632 23.6863 80.1636 23.7393 80.1196 23.0534C80.084 22.4937 79.9367 21.9414 79.8182 21.2738C79.5642 21.4457 79.3729 21.5627 79.1934 21.6981C76.647 23.6204 73.806 24.1929 70.7584 23.8857C68.9417 23.7027 67.2266 23.1998 65.6673 22.1682C62.916 20.3446 61.482 17.6211 61.079 14.2154C60.715 11.1334 61.1332 8.20328 62.6502 5.53102C64.3687 2.50393 66.9422 0.828506 70.1455 0.221257C73.1355 -0.345752 75.9444 0.168215 78.5433 1.90034C78.6838 1.99362 78.8413 2.05581 79.0614 2.16921L79.0665 2.16555Z" fill="white"/>
<path d="M133.019 23.6899C130.015 23.6899 127.011 23.6899 124.008 23.6899C123.666 23.6899 123.339 23.7576 123.329 23.1686C123.319 22.5943 123.586 22.5668 123.996 22.5504C125.532 22.4845 126.09 21.9303 126.267 20.3244C126.322 19.805 126.365 19.28 126.365 18.7587C126.373 14.422 126.375 10.0853 126.365 5.74862C126.363 4.95298 126.316 4.1555 126.253 3.36169C126.162 2.19292 125.691 1.68261 124.594 1.48873C124.448 1.46313 124.304 1.39545 124.16 1.39545C123.742 1.39728 123.698 1.13207 123.703 0.766255C123.708 0.310818 123.986 0.330938 124.267 0.330938C127.079 0.330938 129.893 0.330938 132.705 0.330938C132.726 0.330938 132.748 0.332767 132.768 0.330938C133.085 0.310818 133.286 0.391297 133.291 0.811981C133.298 1.22718 133.161 1.38082 132.78 1.38265C132.487 1.38265 132.192 1.45215 131.905 1.51983C131.124 1.70456 130.628 2.21853 130.496 3.07453C130.416 3.5885 130.362 4.11527 130.362 4.63655C130.352 9.13238 130.355 13.63 130.357 18.1259C130.357 18.4222 130.355 18.7221 130.396 19.013C130.677 21.0158 131.502 21.8883 133.418 21.998C134.91 22.084 136.415 22.0986 137.903 21.9834C139.694 21.8444 140.99 20.8347 141.625 18.9654C141.791 18.4752 141.977 17.9795 142.055 17.4692C142.144 16.8711 142.495 16.8693 142.884 16.937C143.368 17.0211 143.133 17.4125 143.116 17.696C143.013 19.4007 142.877 21.1054 142.813 22.8119C142.788 23.4759 142.618 23.7155 141.967 23.7082C138.985 23.6716 136.002 23.6917 133.02 23.6917L133.019 23.6899Z" fill="white"/>
<path d="M137.727 37.6713C136.713 37.6713 135.785 37.6548 134.859 37.6896C134.727 37.6951 134.497 37.9475 134.493 38.092C134.47 38.9791 134.487 39.8698 134.514 40.7587C134.527 41.1996 134.712 41.4794 135.179 41.4922C135.308 41.4959 135.431 41.6897 135.557 41.7977C135.431 41.8818 135.306 42.0373 135.181 42.0409C134.145 42.061 133.108 42.061 132.072 42.0409C131.95 42.0391 131.832 41.8708 131.712 41.7794C131.823 41.6788 131.935 41.494 132.047 41.4922C132.634 41.4885 132.743 41.1044 132.741 40.5868C132.738 38.5785 132.734 36.5702 132.746 34.5619C132.749 33.9876 132.636 33.565 131.998 33.5504C131.906 33.5486 131.818 33.4151 131.728 33.3419C131.832 33.2578 131.935 33.1005 132.04 33.0986C133.097 33.0803 134.155 33.0785 135.213 33.095C135.325 33.095 135.436 33.2376 135.546 33.3145C135.445 33.3968 135.343 33.5486 135.24 33.5504C134.673 33.5559 134.514 33.9492 134.495 34.4485C134.47 35.1326 134.481 35.8166 134.473 36.5007C134.468 36.9067 134.654 37.0677 135.023 37.0604C135.763 37.0476 136.503 37.0494 137.245 37.0586C137.587 37.0622 137.759 36.9013 137.756 36.5318C137.751 35.8239 137.756 35.1179 137.732 34.4101C137.715 33.9327 137.551 33.5705 137.021 33.5522C136.906 33.5486 136.796 33.4169 136.684 33.3456C136.808 33.2578 136.93 33.0968 137.053 33.095C138.089 33.0749 139.126 33.0767 140.162 33.095C140.275 33.0968 140.389 33.234 140.5 33.309C140.401 33.3931 140.302 33.5449 140.199 33.5504C139.596 33.5852 139.488 33.9876 139.491 34.5326C139.5 36.5409 139.501 38.5492 139.491 40.5575C139.488 41.1136 139.601 41.5032 140.219 41.4904C140.318 41.4885 140.417 41.6568 140.517 41.7464C140.407 41.847 140.297 42.0336 140.185 42.0354C139.129 42.0574 138.071 42.0574 137.013 42.0354C136.896 42.0336 136.784 41.8544 136.669 41.7574C136.786 41.6641 136.904 41.4867 137.019 41.4885C137.521 41.4959 137.715 41.1867 137.725 40.724C137.746 39.729 137.732 38.7321 137.732 37.6695L137.727 37.6713Z" fill="white"/>
<path d="M88.0009 37.7865C88.6324 38.8968 89.2216 39.9704 89.8514 41.0166C89.9767 41.2251 90.2696 41.3075 90.4575 41.4812C90.549 41.5654 90.6201 41.73 90.6167 41.8562C90.6167 41.922 90.4355 42.0446 90.3407 42.0409C89.1352 41.9879 88.3446 41.9403 87.7791 40.713C87.4692 40.0399 87.095 39.3997 86.7987 38.7193C86.5516 38.1523 86.2113 37.9237 85.578 38.1761C85.578 39.0723 85.5391 40.0052 85.6085 40.927C85.6237 41.1282 86.0318 41.2946 86.257 41.4794C86.3738 41.5745 86.4906 41.6714 86.6074 41.7684C86.4889 41.8635 86.3721 42.0373 86.2519 42.0391C85.1937 42.061 84.1372 42.061 83.079 42.0391C82.9656 42.0373 82.8572 41.8525 82.7455 41.7519C82.8657 41.6605 82.9876 41.4885 83.1044 41.4922C83.653 41.5105 83.8274 41.1355 83.8308 40.6673C83.8494 38.5895 83.8494 36.5135 83.8325 34.4357C83.8291 33.9382 83.6327 33.5522 83.0706 33.5504C82.9656 33.5504 82.8623 33.4004 82.7573 33.3218C82.8454 33.245 82.9351 33.1023 83.0231 33.1023C84.6079 33.1169 86.1994 33.0547 87.7723 33.212C88.9168 33.3254 89.5077 34.0205 89.6144 34.9698C89.738 36.0782 89.3435 36.9269 88.4343 37.4847C88.3259 37.5506 88.2226 37.631 87.9992 37.7883L88.0009 37.7865ZM85.5696 33.6766C85.5696 34.8801 85.5628 35.994 85.5797 37.1079C85.5814 37.2286 85.6932 37.4079 85.7948 37.4554C86.2417 37.6658 87.1103 37.4061 87.4337 36.9982C87.8857 36.4275 87.9653 34.9496 87.542 34.2674C87.073 33.5102 86.3552 33.651 85.5696 33.6784V33.6766Z" fill="white"/>
<path d="M148.096 37.4499C148.253 36.7019 148.331 35.9208 148.585 35.213C149.089 33.7991 150.134 33.0858 151.514 32.9761C152.057 32.9322 152.626 32.9175 153.155 33.0382C154.8 33.4114 155.681 34.6259 155.948 36.3488C156.119 37.4536 156.095 38.5766 155.711 39.654C155.112 41.3349 153.607 42.3061 151.866 42.1323C149.362 41.8818 148.201 40.4039 148.096 37.4518V37.4499ZM154.296 37.5231C154.162 36.6726 154.093 35.8056 153.876 34.9825C153.63 34.0497 152.953 33.5705 152.134 33.5687C151.309 33.5668 150.645 34.0351 150.366 34.9588C149.855 36.6525 149.863 38.3754 150.352 40.071C150.632 41.0349 151.294 41.4867 152.167 41.472C152.995 41.4592 153.642 40.9837 153.888 40.0344C154.094 39.2314 154.16 38.3864 154.296 37.5249V37.5231Z" fill="white"/>
<path d="M114.908 35.2039C114.908 37.0933 114.887 38.9827 114.936 40.8703C114.941 41.0788 115.331 41.2782 115.548 41.4757C115.669 41.5873 115.802 41.6879 115.928 41.794C115.803 41.8799 115.681 42.0354 115.554 42.0409C114.857 42.0647 114.159 42.0647 113.462 42.0409C113.335 42.0372 113.213 41.8818 113.087 41.7958C113.214 41.6897 113.336 41.4995 113.468 41.4922C113.976 41.4629 114.112 41.1447 114.11 40.6728C114.11 38.5748 114.108 36.4751 114.11 34.3771C114.11 33.8906 113.932 33.6071 113.455 33.5541C113.33 33.5394 113.22 33.3876 113.101 33.298C113.238 33.2267 113.375 33.1004 113.514 33.0931C114.085 33.0694 114.66 33.0346 115.224 33.1078C115.468 33.1389 115.749 33.373 115.903 33.6016C117.044 35.299 118.158 37.0201 119.281 38.7321C119.401 38.915 119.533 39.087 119.758 39.4016C119.794 39.0742 119.829 38.8913 119.829 38.7102C119.834 37.342 119.823 35.9721 119.834 34.6039C119.84 34.0132 119.745 33.5504 119.062 33.5486C118.979 33.5486 118.896 33.4004 118.815 33.3218C118.905 33.2449 118.991 33.1059 119.083 33.1041C119.843 33.0876 120.605 33.0876 121.365 33.1041C121.453 33.1059 121.538 33.2504 121.624 33.3291C121.538 33.4059 121.453 33.5467 121.367 33.5486C120.681 33.5614 120.605 34.0388 120.608 34.6222C120.617 36.8573 120.618 39.0943 120.601 41.3294C120.601 41.5672 120.449 42.0135 120.4 42.008C120.071 41.9714 119.64 41.9476 119.454 41.719C118.927 41.0715 118.502 40.3271 118.038 39.6192C117.195 38.3352 116.355 37.0494 115.51 35.7672C115.368 35.5532 115.214 35.3484 115.065 35.138C115.011 35.16 114.958 35.1819 114.904 35.2039H114.908Z" fill="white"/>
<path d="M73.4148 35.3045C73.3776 35.2149 73.32 35.1198 73.3014 35.0155C73.1575 34.2144 72.7511 33.6712 71.9757 33.587C71.0936 33.4901 70.2674 33.7608 69.8678 34.6461C69.0297 36.5062 69.0331 38.4395 69.8509 40.307C70.2538 41.2288 71.6185 41.7282 72.4989 41.3898C72.6445 41.3331 72.8053 41.0917 72.8222 40.9197C72.868 40.4698 72.8189 40.0089 72.8442 39.5534C72.873 38.9901 72.7427 38.5712 72.1856 38.3975C72.0841 38.3664 72.0231 38.1871 71.9435 38.0755C72.0485 38.0188 72.1518 37.9146 72.2567 37.9128C73.2083 37.9 74.1581 37.9 75.1096 37.9146C75.2044 37.9146 75.2992 38.0426 75.3941 38.1103C75.3229 38.2072 75.2705 38.359 75.1807 38.3901C74.6694 38.5584 74.6 39.0065 74.5729 39.4711C74.5509 39.8351 74.5204 40.2082 74.5695 40.5649C74.6813 41.3715 74.3172 41.7062 73.6417 41.8763C72.5141 42.1598 71.3899 42.2549 70.2623 41.9385C68.6606 41.4886 67.6109 40.1479 67.5161 38.3572C67.4771 37.6146 67.4958 36.8446 67.6363 36.1203C67.98 34.3443 69.2955 33.0877 70.9751 33.0036C71.908 32.956 72.8595 33.106 73.7856 33.2743C74.2326 33.3566 74.6457 33.6876 74.6542 34.3022C74.6626 34.8783 74.324 35.1564 73.4131 35.3063L73.4148 35.3045Z" fill="white"/>
<path d="M104.124 42.05C103.638 42.05 103.149 42.0683 102.665 42.039C102.539 42.0317 102.424 41.8689 102.304 41.7775C102.416 41.6769 102.519 41.5031 102.639 41.4885C103.273 41.4135 103.33 41.0276 103.188 40.4697C102.826 39.0412 102.832 39.0394 101.464 39.0394C101.232 39.0394 100.997 39.0247 100.767 39.043C100.418 39.0705 99.8644 38.9936 99.7611 39.1875C99.4868 39.7015 99.3582 40.3289 99.2803 40.9288C99.26 41.0788 99.6409 41.3001 99.8492 41.4739C99.9795 41.5836 100.129 41.6659 100.269 41.7592C100.132 41.858 99.9982 42.0335 99.8593 42.039C99.1415 42.0683 98.4202 42.061 97.7023 42.0427C97.5855 42.039 97.4721 41.9092 97.3569 41.8378C97.423 41.7189 97.4721 41.5141 97.5584 41.494C98.1645 41.3531 98.3118 40.8117 98.4879 40.3014C99.2397 38.123 100.018 35.9556 100.711 33.7552C100.928 33.0657 101.315 33.0913 101.817 33.0657C102.321 33.0419 102.563 33.2211 102.731 33.7516C103.422 35.9519 104.156 38.1376 104.883 40.3252C105.052 40.8373 105.194 41.3861 105.821 41.494C105.899 41.5068 106.026 41.7208 106 41.7775C105.951 41.8909 105.817 42.0335 105.712 42.039C105.184 42.0646 104.654 42.0518 104.126 42.0518L104.124 42.05ZM102.504 38.3773C102.111 36.9908 101.742 35.6885 101.371 34.3862C101.32 34.3826 101.27 34.3789 101.217 34.3771C100.804 35.6812 100.391 36.9872 99.9508 38.3773H102.502H102.504Z" fill="white"/>
<path d="M180.764 33.6931C180.764 34.732 180.742 35.6849 180.788 36.6342C180.794 36.7842 181.102 37.0238 181.284 37.0384C181.893 37.0915 182.509 37.0439 183.121 37.075C183.266 37.0823 183.405 37.2506 183.546 37.3439C183.398 37.4518 183.253 37.6457 183.102 37.6512C182.349 37.6823 181.593 37.6658 180.764 37.6658C180.764 38.8419 180.747 39.9302 180.784 41.0185C180.789 41.1611 181.065 41.3989 181.228 41.4117C181.837 41.4574 182.454 41.4428 183.065 41.4245C183.686 41.4062 183.96 40.9819 184.023 40.3692C184.077 39.8351 184.33 39.729 184.787 39.9137C184.76 40.5082 184.756 41.099 184.685 41.6788C184.668 41.8196 184.424 42.0336 184.284 42.0354C182.296 42.0592 180.31 42.0556 178.322 42.0409C178.195 42.0409 178.068 41.8854 177.941 41.8031C178.065 41.6952 178.19 41.4904 178.312 41.494C178.866 41.5032 179.023 41.1191 179.027 40.6563C179.044 38.5803 179.044 36.5044 179.023 34.4284C179.018 33.9382 178.832 33.5376 178.261 33.5486C178.16 33.5504 178.057 33.3968 177.953 33.3145C178.065 33.2376 178.175 33.095 178.287 33.095C180.168 33.0822 182.051 33.0858 183.932 33.0858C183.974 33.0858 184.04 33.0767 184.054 33.1005C184.152 33.2724 184.321 33.4516 184.318 33.6254C184.306 34.1467 184.223 34.6661 184.169 35.1856C183.996 35.0539 183.708 34.9551 183.671 34.7869C183.437 33.7571 183.388 33.6913 182.404 33.6913C181.883 33.6913 181.36 33.6913 180.764 33.6913V33.6931Z" fill="white"/>
<path d="M166.252 33.6931C165.882 33.6931 165.611 33.6912 165.34 33.6931C164.505 33.7004 164.287 33.9253 164.128 34.8289C164.094 35.0155 163.907 35.1728 163.792 35.3429C163.681 35.1472 163.474 34.9515 163.474 34.7576C163.479 32.7584 163.254 33.1059 164.999 33.084C166.544 33.0657 168.088 33.0767 169.633 33.0803C170.937 33.084 170.709 32.9761 170.753 34.2985C170.759 34.5033 170.798 34.721 170.751 34.9112C170.71 35.0703 170.565 35.1965 170.467 35.3392C170.353 35.2313 170.214 35.1417 170.135 35.01C170.072 34.9039 170.077 34.7484 170.062 34.6131C169.996 33.9821 169.664 33.7077 169.085 33.6894C167.964 33.6565 167.964 33.6455 167.962 34.8344C167.962 36.6378 167.956 38.4413 167.967 40.2448C167.971 40.8721 167.962 41.5397 168.836 41.494C168.911 41.4903 169.071 41.6861 169.056 41.7391C169.019 41.858 168.897 42.0318 168.807 42.0336C167.707 42.0537 166.608 42.0537 165.507 42.0336C165.406 42.0336 165.308 41.8635 165.208 41.772C165.301 41.6751 165.397 41.4903 165.489 41.4922C166.193 41.5068 166.257 41.0185 166.257 40.4405C166.252 38.2291 166.256 36.0196 166.256 33.6912L166.252 33.6931Z" fill="white"/>
<path d="M195.521 42.0518C194.569 42.0518 193.618 42.0646 192.666 42.0408C192.497 42.0372 192.331 41.8817 192.165 41.7957C192.312 41.6878 192.472 41.5946 192.604 41.4702C192.819 41.2708 193.145 41.0806 193.195 40.8318C193.298 40.3051 193.266 39.7454 193.267 39.1985C193.274 37.7151 193.278 36.2317 193.264 34.7502C193.259 34.1356 193.218 33.5192 192.406 33.5412C192.331 33.543 192.253 33.3821 192.177 33.2961C192.252 33.2284 192.324 33.104 192.401 33.1022C193.521 33.0894 194.64 33.0876 195.761 33.1022C195.843 33.1022 195.922 33.2613 196.003 33.3455C195.91 33.415 195.819 33.543 195.726 33.5449C195.086 33.5631 194.979 33.9966 194.982 34.5636C194.991 36.6177 195.001 38.6699 194.974 40.7239C194.967 41.269 195.138 41.4647 195.626 41.4372C196.068 41.4116 196.513 41.4409 196.957 41.4299C197.796 41.408 198.067 41.172 198.296 40.2868C198.358 40.0472 198.387 39.7893 198.489 39.5716C198.536 39.471 198.724 39.4033 198.848 39.407C198.91 39.407 199.022 39.6009 199.021 39.7051C199.004 40.3654 198.987 41.0294 198.905 41.6823C198.887 41.825 198.604 42.028 198.438 42.0335C197.466 42.0664 196.494 42.05 195.521 42.05V42.0518Z" fill="white"/>
</svg>
